<svg id="svg" version="1.1" xmlns="http://www.w3.org/2000/svg" xmlns:xlink="http://www.w3.org/1999/xlink" width="400" height="161.94563662374821" viewBox="0, 0, 400,161.94563662374821"><g id="svgg"><path id="path0" d="M145.000 70.647 C 145.000 70.729,144.587 70.846,144.083 70.909 C 143.579 70.972,143.167 71.094,143.167 71.179 C 143.167 71.264,143.054 71.333,142.917 71.333 C 142.779 71.333,142.667 71.399,142.667 71.479 C 142.667 71.559,142.460 71.667,142.208 71.718 C 141.956 71.769,141.584 71.966,141.382 72.155 C 141.180 72.345,140.963 72.500,140.901 72.500 C 140.560 72.500,138.333 75.107,138.333 75.507 C 138.333 75.595,138.262 75.667,138.174 75.667 C 138.087 75.667,137.966 75.929,137.906 76.250 C 137.845 76.571,137.730 76.833,137.648 76.833 C 137.567 76.833,137.500 77.021,137.500 77.250 C 137.500 77.479,137.425 77.667,137.333 77.667 C 137.242 77.667,137.167 77.925,137.167 78.240 C 137.167 78.556,137.092 78.860,137.000 78.917 C 136.903 78.976,136.833 79.887,136.833 81.083 C 136.833 82.279,136.903 83.190,137.000 83.250 C 137.092 83.307,137.167 83.611,137.167 83.927 C 137.167 84.242,137.242 84.500,137.333 84.500 C 137.425 84.500,137.500 84.688,137.500 84.917 C 137.500 85.146,137.565 85.333,137.645 85.333 C 137.725 85.333,137.839 85.633,137.897 86.000 C 137.961 86.400,138.136 86.749,138.335 86.873 C 138.518 86.987,138.667 87.188,138.667 87.319 C 138.667 87.624,141.026 89.933,141.487 90.079 C 141.678 90.140,141.833 90.259,141.833 90.345 C 141.833 90.430,141.946 90.500,142.083 90.500 C 142.221 90.500,142.333 90.567,142.333 90.648 C 142.333 90.730,142.596 90.845,142.917 90.906 C 143.237 90.966,143.500 91.087,143.500 91.174 C 143.500 91.262,143.762 91.333,144.083 91.333 C 144.404 91.333,144.667 91.408,144.667 91.500 C 144.667 91.592,144.918 91.667,145.224 91.667 C 145.905 91.667,146.811 92.097,147.220 92.616 C 147.387 92.827,147.598 93.000,147.688 93.000 C 147.779 93.000,148.185 93.337,148.592 93.750 C 148.999 94.162,149.436 94.500,149.565 94.500 C 149.693 94.500,149.841 94.612,149.894 94.750 C 149.946 94.888,150.142 95.000,150.328 95.000 C 150.514 95.000,150.667 95.075,150.667 95.167 C 150.667 95.258,150.779 95.333,150.917 95.333 C 151.054 95.333,151.167 95.408,151.167 95.500 C 151.167 95.592,151.350 95.667,151.573 95.667 C 151.797 95.667,152.027 95.742,152.083 95.833 C 152.144 95.931,153.137 96.000,154.500 96.000 C 155.863 96.000,156.856 95.931,156.917 95.833 C 156.973 95.742,157.203 95.667,157.427 95.667 C 157.650 95.667,157.833 95.592,157.833 95.500 C 157.833 95.408,157.946 95.333,158.083 95.333 C 158.221 95.333,158.333 95.263,158.333 95.178 C 158.333 95.092,158.502 94.969,158.708 94.903 C 159.086 94.783,160.167 93.718,160.167 93.465 C 160.167 93.015,158.351 91.000,157.946 91.000 C 157.822 91.000,157.481 91.263,157.189 91.583 C 156.856 91.950,156.505 92.167,156.246 92.167 C 156.019 92.167,155.833 92.242,155.833 92.333 C 155.833 92.429,155.333 92.500,154.667 92.500 C 154.025 92.500,153.500 92.431,153.500 92.347 C 153.500 92.262,153.260 92.141,152.968 92.076 C 151.731 91.805,151.826 91.143,153.135 90.922 C 153.519 90.857,153.833 90.736,153.833 90.652 C 153.833 90.568,153.914 90.500,154.012 90.500 C 154.110 90.500,154.295 90.406,154.423 90.292 C 154.912 89.853,155.156 89.667,155.241 89.667 C 155.440 89.667,156.974 88.013,157.077 87.686 C 157.139 87.492,157.259 87.333,157.345 87.333 C 157.430 87.333,157.500 87.221,157.500 87.083 C 157.500 86.946,157.567 86.833,157.648 86.833 C 157.730 86.833,157.845 86.571,157.906 86.250 C 157.966 85.929,158.087 85.667,158.174 85.667 C 158.262 85.667,158.333 85.517,158.333 85.333 C 158.333 85.150,158.408 85.000,158.500 85.000 C 158.592 85.000,158.667 84.779,158.667 84.510 C 158.667 84.240,158.742 83.973,158.833 83.917 C 158.933 83.855,159.000 82.724,159.000 81.083 C 159.000 79.443,158.933 78.312,158.833 78.250 C 158.742 78.193,158.667 77.964,158.667 77.740 C 158.667 77.516,158.592 77.333,158.500 77.333 C 158.408 77.333,158.333 77.146,158.333 76.917 C 158.333 76.688,158.264 76.500,158.180 76.500 C 158.096 76.500,157.973 76.256,157.908 75.958 C 157.842 75.661,157.659 75.304,157.501 75.167 C 157.344 75.029,157.167 74.767,157.108 74.583 C 157.050 74.400,156.776 74.100,156.500 73.917 C 156.224 73.733,155.956 73.452,155.904 73.292 C 155.853 73.131,155.740 73.000,155.654 73.000 C 155.568 73.000,155.335 72.813,155.136 72.583 C 154.936 72.354,154.674 72.167,154.553 72.167 C 154.432 72.167,154.333 72.100,154.333 72.018 C 154.333 71.936,154.146 71.822,153.917 71.765 C 153.688 71.707,153.500 71.587,153.500 71.497 C 153.500 71.407,153.313 71.333,153.083 71.333 C 152.854 71.333,152.667 71.261,152.667 71.172 C 152.667 71.084,152.292 70.962,151.833 70.901 C 151.375 70.840,151.000 70.725,151.000 70.645 C 151.000 70.565,149.650 70.500,148.000 70.500 C 146.350 70.500,145.000 70.566,145.000 70.647 M285.333 81.083 L 285.333 91.333 292.833 91.333 L 300.333 91.333 300.333 89.667 L 300.333 88.000 295.000 88.000 L 289.667 88.000 289.667 79.417 L 289.667 70.833 287.500 70.833 L 285.333 70.833 285.333 81.083 M217.449 71.940 C 217.386 72.003,217.333 72.868,217.333 73.861 L 217.333 75.667 216.167 75.667 L 215.000 75.667 215.000 77.250 L 215.000 78.833 216.167 78.833 L 217.333 78.833 217.333 82.917 C 217.333 85.162,217.397 87.000,217.476 87.000 C 217.554 87.000,217.665 87.496,217.721 88.101 C 217.797 88.913,217.913 89.280,218.162 89.496 C 218.348 89.657,218.500 89.842,218.500 89.906 C 218.500 90.088,218.955 90.500,219.155 90.500 C 219.253 90.500,219.333 90.574,219.333 90.663 C 219.333 90.753,219.521 90.874,219.750 90.932 C 219.979 90.989,220.167 91.103,220.167 91.185 C 220.167 91.266,220.429 91.333,220.750 91.333 C 221.071 91.333,221.333 91.408,221.333 91.500 C 221.333 91.600,222.000 91.667,223.000 91.667 C 224.000 91.667,224.667 91.600,224.667 91.500 C 224.667 91.408,224.892 91.333,225.167 91.333 C 225.442 91.333,225.667 91.264,225.667 91.180 C 225.667 91.096,225.892 90.977,226.167 90.917 C 226.715 90.796,227.025 90.125,226.688 89.788 C 226.585 89.685,226.500 89.465,226.500 89.300 C 226.500 89.135,226.425 89.000,226.333 89.000 C 226.242 89.000,226.167 88.813,226.167 88.583 C 226.167 88.354,226.092 88.167,226.000 88.167 C 225.908 88.167,225.833 87.979,225.833 87.750 C 225.833 87.417,225.750 87.333,225.417 87.333 C 225.188 87.333,225.000 87.408,225.000 87.500 C 225.000 87.592,224.887 87.667,224.750 87.667 C 224.612 87.667,224.500 87.742,224.500 87.833 C 224.500 87.925,224.088 88.000,223.583 88.000 C 223.079 88.000,222.667 87.925,222.667 87.833 C 222.667 87.742,222.586 87.667,222.488 87.667 C 221.823 87.667,221.752 87.242,221.700 82.971 L 221.650 78.833 223.659 78.833 L 225.667 78.833 225.667 77.250 L 225.667 75.667 223.672 75.667 L 221.678 75.667 221.630 73.792 L 221.583 71.917 219.574 71.870 C 218.469 71.845,217.513 71.876,217.449 71.940 M149.833 74.645 C 149.833 74.725,150.133 74.839,150.500 74.897 C 150.867 74.956,151.167 75.078,151.167 75.169 C 151.167 75.259,151.278 75.333,151.413 75.333 C 151.734 75.333,153.500 77.100,153.500 77.420 C 153.500 77.556,153.570 77.667,153.654 77.667 C 153.854 77.667,154.333 78.626,154.333 79.026 C 154.333 79.195,154.408 79.333,154.500 79.333 C 154.601 79.333,154.667 80.028,154.667 81.083 C 154.667 82.139,154.601 82.833,154.500 82.833 C 154.408 82.833,154.333 83.096,154.333 83.417 C 154.333 83.737,154.266 84.000,154.185 84.000 C 154.103 84.000,153.989 84.188,153.932 84.417 C 153.874 84.646,153.753 84.833,153.663 84.833 C 153.574 84.833,153.500 84.911,153.500 85.007 C 153.500 85.186,153.250 85.531,152.864 85.883 C 152.744 85.993,152.444 86.277,152.197 86.514 C 151.951 86.751,151.506 87.051,151.208 87.180 C 150.910 87.309,150.667 87.471,150.667 87.541 C 150.667 87.610,150.479 87.667,150.250 87.667 C 150.021 87.667,149.833 87.742,149.833 87.833 C 149.833 87.934,149.139 88.000,148.083 88.000 C 147.028 88.000,146.333 87.934,146.333 87.833 C 146.333 87.742,146.146 87.667,145.917 87.667 C 145.688 87.667,145.500 87.592,145.500 87.500 C 145.500 87.408,145.350 87.333,145.167 87.333 C 144.983 87.333,144.833 87.266,144.833 87.185 C 144.833 87.103,144.640 86.988,144.404 86.928 C 143.954 86.815,142.667 85.650,142.667 85.356 C 142.667 85.262,142.523 85.085,142.348 84.962 C 142.172 84.839,141.976 84.459,141.912 84.117 C 141.848 83.776,141.729 83.455,141.648 83.405 C 141.566 83.355,141.500 83.131,141.500 82.907 C 141.500 82.683,141.425 82.500,141.333 82.500 C 141.236 82.500,141.167 81.944,141.167 81.167 C 141.167 80.389,141.236 79.833,141.333 79.833 C 141.425 79.833,141.500 79.646,141.500 79.417 C 141.500 79.188,141.565 79.000,141.645 79.000 C 141.725 79.000,141.836 78.718,141.891 78.373 C 141.947 78.024,142.141 77.639,142.329 77.503 C 142.515 77.369,142.667 77.179,142.667 77.081 C 142.667 76.823,143.794 75.667,144.046 75.667 C 144.164 75.667,144.369 75.515,144.503 75.329 C 144.639 75.141,145.024 74.947,145.373 74.891 C 145.718 74.836,146.000 74.725,146.000 74.645 C 146.000 74.565,146.862 74.500,147.917 74.500 C 148.971 74.500,149.833 74.565,149.833 74.645 M184.667 75.500 C 184.667 75.592,184.464 75.667,184.217 75.667 C 183.639 75.667,181.833 76.200,181.833 76.370 C 181.833 76.442,181.721 76.500,181.583 76.500 C 181.446 76.500,181.333 76.575,181.333 76.667 C 181.333 76.758,181.198 76.833,181.033 76.833 C 180.093 76.833,180.098 78.306,181.041 79.184 C 181.202 79.333,181.380 79.690,181.437 79.978 C 181.560 80.594,182.117 80.699,182.493 80.176 C 182.621 79.998,183.013 79.804,183.362 79.745 C 183.712 79.686,184.041 79.569,184.092 79.485 C 184.144 79.402,184.369 79.333,184.593 79.333 C 184.817 79.333,185.000 79.258,185.000 79.167 C 185.000 79.069,185.583 79.000,186.417 79.000 C 187.250 79.000,187.833 79.069,187.833 79.167 C 187.833 79.258,188.021 79.333,188.250 79.333 C 188.479 79.333,188.667 79.407,188.667 79.497 C 188.667 79.587,188.854 79.707,189.083 79.765 C 189.344 79.830,189.500 79.987,189.500 80.185 C 189.500 80.358,189.575 80.500,189.667 80.500 C 189.758 80.500,189.833 80.612,189.833 80.750 C 189.833 80.887,189.908 81.000,190.000 81.000 C 190.092 81.000,190.167 81.218,190.167 81.484 L 190.167 81.968 186.458 82.028 C 183.557 82.075,182.661 82.142,182.340 82.336 C 181.633 82.762,180.349 84.129,180.237 84.574 C 180.179 84.808,180.064 85.000,179.982 85.000 C 179.900 85.000,179.833 85.712,179.833 86.583 C 179.833 87.528,179.901 88.167,180.000 88.167 C 180.092 88.167,180.167 88.349,180.167 88.571 C 180.167 88.794,180.279 89.089,180.417 89.226 C 180.554 89.364,180.667 89.522,180.667 89.579 C 180.667 89.713,181.454 90.500,181.588 90.500 C 181.644 90.500,181.803 90.612,181.940 90.750 C 182.078 90.888,182.373 91.000,182.595 91.000 C 182.818 91.000,183.000 91.075,183.000 91.167 C 183.000 91.258,183.188 91.333,183.417 91.333 C 183.646 91.333,183.833 91.408,183.833 91.500 C 183.833 91.602,184.611 91.667,185.833 91.667 C 187.056 91.667,187.833 91.602,187.833 91.500 C 187.833 91.408,188.021 91.333,188.250 91.333 C 188.479 91.333,188.667 91.258,188.667 91.167 C 188.667 91.075,188.851 91.000,189.076 91.000 C 189.301 91.000,189.676 90.809,189.909 90.576 L 190.333 90.152 190.333 90.742 L 190.333 91.333 192.422 91.333 L 194.510 91.333 194.437 86.458 C 194.361 81.417,194.245 79.667,193.985 79.667 C 193.901 79.667,193.833 79.479,193.833 79.250 C 193.833 79.021,193.768 78.833,193.688 78.833 C 193.607 78.833,193.496 78.607,193.441 78.330 C 193.328 77.766,192.168 76.500,191.763 76.500 C 191.618 76.500,191.500 76.443,191.500 76.373 C 191.500 76.183,190.226 75.667,189.759 75.667 C 189.536 75.667,189.307 75.592,189.250 75.500 C 189.190 75.402,188.220 75.333,186.907 75.333 C 185.524 75.333,184.667 75.397,184.667 75.500 M204.667 75.489 C 204.529 75.564,203.996 75.756,203.481 75.915 C 202.967 76.075,202.444 76.347,202.319 76.519 C 201.983 76.986,201.833 76.903,201.833 76.250 L 201.833 75.667 199.833 75.667 L 197.833 75.667 197.833 83.500 L 197.833 91.333 199.833 91.333 L 201.833 91.333 201.833 86.917 C 201.833 84.083,201.893 82.500,202.000 82.500 C 202.092 82.500,202.167 82.237,202.167 81.917 C 202.167 81.596,202.242 81.333,202.333 81.333 C 202.425 81.333,202.500 81.230,202.500 81.104 C 202.500 80.767,203.561 79.667,203.887 79.667 C 204.041 79.667,204.167 79.592,204.167 79.500 C 204.167 79.408,204.279 79.333,204.417 79.333 C 204.554 79.333,204.667 79.258,204.667 79.167 C 204.667 79.071,205.167 79.000,205.833 79.000 C 206.500 79.000,207.000 79.071,207.000 79.167 C 207.000 79.258,207.150 79.333,207.333 79.333 C 207.517 79.333,207.667 79.400,207.667 79.482 C 207.667 79.564,207.854 79.678,208.083 79.735 C 208.346 79.801,208.500 79.957,208.500 80.158 C 208.500 80.333,208.612 80.589,208.750 80.726 C 208.887 80.864,209.000 81.132,209.000 81.321 C 209.000 81.511,209.075 81.667,209.167 81.667 C 209.274 81.667,209.333 83.389,209.333 86.500 L 209.333 91.333 211.333 91.333 L 213.333 91.333 213.333 85.500 C 213.333 81.722,213.275 79.667,213.167 79.667 C 213.075 79.667,213.000 79.479,213.000 79.250 C 213.000 79.021,212.925 78.833,212.833 78.833 C 212.742 78.833,212.667 78.693,212.667 78.520 C 212.667 78.348,212.554 78.114,212.417 78.000 C 212.279 77.886,212.167 77.721,212.167 77.633 C 212.167 77.373,211.214 76.500,210.929 76.500 C 210.785 76.500,210.667 76.426,210.667 76.336 C 210.667 76.122,209.574 75.667,209.063 75.667 C 208.845 75.667,208.667 75.592,208.667 75.500 C 208.667 75.298,205.035 75.289,204.667 75.489 M254.833 75.500 C 254.833 75.592,254.611 75.667,254.339 75.667 C 253.744 75.667,252.694 76.128,252.292 76.567 C 252.009 76.874,252.000 76.865,252.000 76.276 L 252.000 75.667 250.000 75.667 L 248.000 75.667 248.000 83.500 L 248.000 91.333 249.985 91.333 L 251.970 91.333 252.027 86.389 C 252.070 82.622,252.133 81.428,252.292 81.375 C 252.406 81.337,252.500 81.231,252.500 81.141 C 252.500 81.050,252.612 80.864,252.750 80.726 C 252.887 80.589,253.000 80.332,253.000 80.155 C 253.000 79.948,253.115 79.833,253.321 79.833 C 253.498 79.833,253.755 79.721,253.893 79.583 C 254.030 79.446,254.223 79.333,254.321 79.333 C 254.420 79.333,254.500 79.258,254.500 79.167 C 254.500 79.071,255.000 79.000,255.667 79.000 C 256.333 79.000,256.833 79.071,256.833 79.167 C 256.833 79.258,256.914 79.333,257.012 79.333 C 257.178 79.333,257.316 79.432,257.869 79.950 C 258.326 80.377,258.500 80.666,258.500 80.993 C 258.500 81.180,258.575 81.333,258.667 81.333 C 258.774 81.333,258.833 83.111,258.833 86.333 L 258.833 91.333 260.987 91.333 L 263.141 91.333 263.195 86.222 C 263.237 82.321,263.299 81.094,263.458 81.042 C 263.573 81.003,263.667 80.866,263.667 80.736 C 263.667 80.606,263.737 80.500,263.822 80.500 C 263.908 80.500,264.025 80.350,264.083 80.167 C 264.141 79.984,264.371 79.788,264.594 79.732 C 264.817 79.676,265.000 79.564,265.000 79.482 C 265.000 79.400,265.150 79.333,265.333 79.333 C 265.517 79.333,265.667 79.258,265.667 79.167 C 265.667 79.074,266.111 79.000,266.667 79.000 C 267.222 79.000,267.667 79.074,267.667 79.167 C 267.667 79.258,267.817 79.333,268.000 79.333 C 268.183 79.333,268.333 79.400,268.333 79.482 C 268.333 79.564,268.512 79.675,268.731 79.730 C 269.024 79.804,269.158 79.985,269.239 80.415 C 269.299 80.737,269.420 81.000,269.508 81.000 C 269.595 81.000,269.667 81.262,269.667 81.583 C 269.667 81.904,269.742 82.167,269.833 82.167 C 269.940 82.167,270.000 83.806,270.000 86.750 L 270.000 91.333 272.000 91.333 L 274.000 91.333 274.000 85.667 C 274.000 82.000,273.941 80.000,273.833 80.000 C 273.742 80.000,273.667 79.775,273.667 79.500 C 273.667 79.225,273.592 79.000,273.500 79.000 C 273.408 79.000,273.333 78.822,273.333 78.604 C 273.333 78.386,273.221 78.114,273.083 78.000 C 272.946 77.886,272.833 77.724,272.833 77.641 C 272.833 77.428,271.861 76.500,271.638 76.500 C 271.536 76.500,271.370 76.388,271.268 76.250 C 271.167 76.113,270.690 75.908,270.208 75.794 C 269.727 75.681,269.333 75.531,269.333 75.461 C 269.333 75.391,268.508 75.333,267.500 75.333 C 266.389 75.333,265.667 75.399,265.667 75.500 C 265.667 75.592,265.443 75.667,265.170 75.667 C 264.503 75.667,263.338 76.148,262.867 76.618 C 262.657 76.828,262.382 77.000,262.256 77.000 C 262.131 77.000,261.995 77.094,261.955 77.208 C 261.901 77.361,261.794 77.339,261.553 77.125 C 261.372 76.965,261.163 76.833,261.090 76.833 C 261.016 76.833,260.834 76.698,260.686 76.533 C 260.347 76.156,259.311 75.667,258.850 75.667 C 258.657 75.667,258.500 75.592,258.500 75.500 C 258.500 75.399,257.778 75.333,256.667 75.333 C 255.556 75.333,254.833 75.399,254.833 75.500 M306.833 75.500 C 306.833 75.592,306.608 75.667,306.332 75.667 C 305.848 75.667,304.313 76.366,303.863 76.792 C 303.742 76.906,303.564 77.000,303.468 77.000 C 303.256 77.000,302.340 78.015,302.336 78.255 C 302.335 78.349,302.184 78.534,302.001 78.666 C 301.818 78.798,301.622 79.152,301.566 79.453 C 301.509 79.754,301.396 80.000,301.315 80.000 C 301.233 80.000,301.167 80.188,301.167 80.417 C 301.167 80.646,301.092 80.833,301.000 80.833 C 300.908 80.833,300.833 81.129,300.833 81.490 C 300.833 81.851,300.758 82.193,300.667 82.250 C 300.575 82.307,300.500 82.869,300.500 83.500 C 300.500 84.131,300.575 84.693,300.667 84.750 C 300.758 84.807,300.833 85.149,300.833 85.510 C 300.833 85.871,300.908 86.167,301.000 86.167 C 301.092 86.167,301.167 86.354,301.167 86.583 C 301.167 86.813,301.232 87.000,301.313 87.000 C 301.393 87.000,301.503 87.225,301.558 87.500 C 301.663 88.023,303.632 90.167,304.008 90.167 C 304.119 90.167,304.332 90.305,304.480 90.475 C 304.629 90.644,305.031 90.835,305.375 90.899 C 305.719 90.963,306.000 91.087,306.000 91.174 C 306.000 91.262,306.337 91.333,306.750 91.333 C 307.162 91.333,307.500 91.408,307.500 91.500 C 307.500 91.602,308.278 91.667,309.500 91.667 C 310.722 91.667,311.500 91.602,311.500 91.500 C 311.500 91.408,311.762 91.333,312.083 91.333 C 312.404 91.333,312.667 91.268,312.667 91.188 C 312.667 91.108,312.967 90.995,313.333 90.936 C 313.700 90.877,314.000 90.755,314.000 90.665 C 314.000 90.574,314.078 90.500,314.174 90.500 C 315.249 90.500,316.070 88.516,315.250 87.900 C 315.021 87.728,314.833 87.501,314.833 87.395 C 314.833 86.602,313.416 85.921,312.995 86.510 C 312.860 86.699,312.506 86.971,312.208 87.113 C 311.910 87.255,311.667 87.438,311.667 87.519 C 311.667 87.600,311.479 87.667,311.250 87.667 C 311.021 87.667,310.833 87.742,310.833 87.833 C 310.833 87.930,310.306 88.000,309.583 88.000 C 308.861 88.000,308.333 87.930,308.333 87.833 C 308.333 87.742,308.146 87.667,307.917 87.667 C 307.688 87.667,307.500 87.592,307.500 87.500 C 307.500 87.408,307.350 87.333,307.167 87.333 C 306.983 87.333,306.833 87.263,306.833 87.178 C 306.833 87.092,306.668 86.970,306.466 86.906 C 306.001 86.758,305.742 86.499,305.594 86.034 C 305.530 85.832,305.408 85.667,305.322 85.667 C 305.237 85.667,305.167 85.479,305.167 85.250 C 305.167 85.021,305.092 84.833,305.000 84.833 C 304.908 84.833,304.833 84.758,304.833 84.667 C 304.833 84.559,306.952 84.500,310.856 84.500 L 316.879 84.500 316.789 82.542 C 316.706 80.747,316.458 79.671,316.125 79.668 C 316.056 79.667,316.000 79.517,316.000 79.333 C 316.000 79.150,315.925 79.000,315.833 79.000 C 315.742 79.000,315.667 78.887,315.667 78.749 C 315.667 78.611,315.479 78.335,315.250 78.136 C 315.021 77.936,314.833 77.674,314.833 77.553 C 314.833 77.432,314.755 77.333,314.660 77.333 C 314.496 77.333,314.308 77.203,313.756 76.708 C 313.628 76.594,313.450 76.500,313.359 76.500 C 313.269 76.500,313.169 76.444,313.139 76.375 C 313.035 76.140,311.823 75.667,311.328 75.667 C 311.056 75.667,310.833 75.592,310.833 75.500 C 310.833 75.398,310.056 75.333,308.833 75.333 C 307.611 75.333,306.833 75.398,306.833 75.500 M322.667 75.477 C 322.667 75.556,322.251 75.670,321.743 75.729 C 320.913 75.827,319.380 76.390,319.167 76.677 C 319.121 76.738,318.915 76.841,318.708 76.905 C 318.325 77.025,318.116 78.500,318.482 78.500 C 318.564 78.500,318.678 78.688,318.735 78.917 C 318.793 79.146,318.913 79.333,319.003 79.333 C 319.093 79.333,319.167 79.446,319.167 79.583 C 319.167 79.721,319.242 79.833,319.333 79.833 C 319.425 79.833,319.500 79.983,319.500 80.167 C 319.500 80.616,320.178 80.613,320.503 80.162 C 320.639 79.974,321.024 79.780,321.373 79.724 C 321.718 79.669,322.000 79.559,322.000 79.479 C 322.000 79.399,322.188 79.333,322.417 79.333 C 322.646 79.333,322.833 79.258,322.833 79.167 C 322.833 79.068,323.444 79.000,324.333 79.000 C 325.222 79.000,325.833 79.068,325.833 79.167 C 325.833 79.258,326.013 79.333,326.232 79.333 C 326.452 79.333,326.674 79.446,326.727 79.583 C 326.780 79.721,326.975 79.833,327.161 79.833 C 327.384 79.833,327.500 79.943,327.500 80.153 C 327.500 80.328,327.580 80.499,327.677 80.531 C 327.775 80.564,327.896 80.899,327.947 81.277 L 328.039 81.963 324.241 82.024 C 321.403 82.069,320.426 82.137,320.375 82.292 C 320.337 82.407,320.234 82.500,320.146 82.500 C 319.791 82.500,318.333 83.969,318.333 84.326 C 318.333 84.422,318.277 84.501,318.208 84.501 C 318.140 84.502,317.990 84.704,317.875 84.951 C 317.626 85.488,317.591 88.167,317.833 88.167 C 317.925 88.167,318.000 88.338,318.000 88.547 C 318.000 88.755,318.150 89.035,318.333 89.167 C 318.517 89.299,318.667 89.491,318.667 89.595 C 318.667 89.841,319.242 90.500,319.457 90.500 C 319.550 90.500,319.719 90.612,319.833 90.750 C 319.947 90.888,320.219 91.000,320.437 91.000 C 320.655 91.000,320.833 91.075,320.833 91.167 C 320.833 91.258,321.058 91.333,321.333 91.333 C 321.608 91.333,321.833 91.408,321.833 91.500 C 321.833 91.601,322.583 91.667,323.750 91.667 C 324.917 91.667,325.667 91.601,325.667 91.500 C 325.667 91.408,325.892 91.333,326.167 91.333 C 326.442 91.333,326.667 91.258,326.667 91.167 C 326.667 91.075,326.849 91.000,327.071 91.000 C 327.304 91.000,327.615 90.823,327.804 90.583 C 328.241 90.028,328.333 90.057,328.333 90.750 L 328.333 91.333 330.333 91.333 L 332.333 91.333 332.333 86.333 C 332.333 83.583,332.269 81.333,332.191 81.333 C 332.112 81.333,332.003 80.791,331.947 80.127 C 331.892 79.464,331.768 78.895,331.673 78.863 C 331.578 78.832,331.500 78.662,331.500 78.486 C 331.500 78.310,331.425 78.167,331.333 78.167 C 331.242 78.167,331.167 78.089,331.167 77.993 C 331.167 77.643,330.023 76.500,329.674 76.500 C 329.578 76.500,329.500 76.425,329.500 76.333 C 329.500 76.242,329.356 76.167,329.181 76.167 C 329.005 76.167,328.834 76.084,328.800 75.984 C 328.767 75.883,328.385 75.761,327.953 75.712 C 327.520 75.663,327.167 75.558,327.167 75.478 C 327.167 75.399,326.154 75.333,324.917 75.333 C 323.679 75.333,322.667 75.398,322.667 75.477 M342.667 75.500 C 342.667 75.592,342.419 75.667,342.115 75.667 C 341.812 75.667,341.418 75.777,341.240 75.911 C 341.062 76.046,340.813 76.158,340.686 76.161 C 340.559 76.164,340.316 76.328,340.145 76.526 L 339.833 76.884 339.833 76.276 L 339.833 75.667 337.833 75.667 L 335.833 75.667 335.833 86.333 L 335.833 97.000 337.833 97.000 L 339.833 97.000 339.846 93.542 C 339.854 91.640,339.897 90.177,339.944 90.292 C 339.990 90.406,340.172 90.500,340.347 90.500 C 340.523 90.500,340.667 90.574,340.667 90.663 C 340.667 90.753,340.854 90.874,341.083 90.932 C 341.313 90.989,341.500 91.103,341.500 91.185 C 341.500 91.266,341.762 91.333,342.083 91.333 C 342.404 91.333,342.667 91.408,342.667 91.500 C 342.667 91.601,343.389 91.667,344.500 91.667 C 345.611 91.667,346.333 91.601,346.333 91.500 C 346.333 91.408,346.596 91.333,346.917 91.333 C 347.238 91.333,347.500 91.268,347.500 91.188 C 347.500 91.108,347.782 90.998,348.127 90.942 C 348.476 90.887,348.861 90.693,348.997 90.504 C 349.131 90.319,349.350 90.167,349.485 90.167 C 349.766 90.167,350.953 88.912,351.094 88.465 C 351.146 88.301,351.259 88.167,351.345 88.167 C 351.430 88.167,351.500 88.054,351.500 87.917 C 351.500 87.779,351.570 87.667,351.656 87.667 C 351.743 87.667,351.864 87.329,351.925 86.917 C 351.987 86.504,352.104 86.167,352.186 86.167 C 352.267 86.167,352.333 85.792,352.333 85.333 C 352.333 84.875,352.408 84.500,352.500 84.500 C 352.593 84.500,352.667 84.056,352.667 83.500 C 352.667 82.944,352.593 82.500,352.500 82.500 C 352.408 82.500,352.333 82.125,352.333 81.667 C 352.333 81.208,352.267 80.833,352.186 80.833 C 352.104 80.833,351.987 80.496,351.925 80.083 C 351.864 79.671,351.743 79.333,351.656 79.333 C 351.570 79.333,351.500 79.221,351.500 79.083 C 351.500 78.946,351.430 78.833,351.345 78.833 C 351.259 78.833,351.146 78.699,351.094 78.535 C 350.959 78.108,349.772 76.833,349.510 76.833 C 349.388 76.833,349.168 76.697,349.020 76.531 C 348.673 76.142,347.469 75.667,346.830 75.667 C 346.557 75.667,346.333 75.592,346.333 75.500 C 346.333 75.399,345.611 75.333,344.500 75.333 C 343.389 75.333,342.667 75.399,342.667 75.500 M161.500 80.740 C 161.500 83.943,161.561 85.852,161.667 85.917 C 161.758 85.973,161.833 86.315,161.833 86.677 C 161.833 87.038,161.900 87.333,161.981 87.333 C 162.062 87.333,162.179 87.671,162.241 88.083 C 162.303 88.496,162.424 88.833,162.510 88.833 C 162.596 88.833,162.667 88.917,162.667 89.020 C 162.667 89.220,163.885 90.500,164.076 90.500 C 164.139 90.500,164.303 90.612,164.440 90.750 C 164.578 90.888,164.873 91.000,165.095 91.000 C 165.318 91.000,165.500 91.075,165.500 91.167 C 165.500 91.258,165.762 91.333,166.083 91.333 C 166.404 91.333,166.667 91.408,166.667 91.500 C 166.667 91.601,167.389 91.667,168.500 91.667 C 169.611 91.667,170.333 91.601,170.333 91.500 C 170.333 91.408,170.521 91.333,170.750 91.333 C 170.979 91.333,171.167 91.267,171.167 91.185 C 171.167 91.104,171.429 90.988,171.750 90.928 C 172.071 90.867,172.333 90.747,172.333 90.659 C 172.333 90.572,172.477 90.500,172.653 90.500 C 172.828 90.500,173.010 90.406,173.056 90.292 C 173.103 90.177,173.146 90.365,173.154 90.708 L 173.167 91.333 175.250 91.333 L 177.333 91.333 177.333 83.500 L 177.333 75.667 175.167 75.667 L 173.000 75.667 173.000 80.250 C 173.000 83.194,172.940 84.833,172.833 84.833 C 172.742 84.833,172.667 85.021,172.667 85.250 C 172.667 85.479,172.600 85.667,172.518 85.667 C 172.436 85.667,172.322 85.854,172.265 86.083 C 172.207 86.313,172.087 86.500,171.997 86.500 C 171.907 86.500,171.833 86.612,171.833 86.750 C 171.833 86.888,171.737 87.000,171.620 87.000 C 171.503 87.000,171.299 87.150,171.167 87.333 C 171.035 87.517,170.755 87.667,170.547 87.667 C 170.338 87.667,170.167 87.742,170.167 87.833 C 170.167 87.926,169.726 88.000,169.177 88.000 C 168.632 88.000,168.140 87.925,168.083 87.833 C 168.027 87.742,167.802 87.667,167.585 87.667 C 167.339 87.667,167.150 87.544,167.086 87.342 C 167.029 87.163,166.843 86.973,166.672 86.918 C 166.467 86.853,166.322 86.594,166.249 86.161 C 166.188 85.798,166.069 85.459,165.985 85.408 C 165.899 85.354,165.833 83.220,165.833 80.490 L 165.833 75.667 163.667 75.667 L 161.500 75.667 161.500 80.740 M228.500 80.833 C 228.500 83.675,228.564 86.000,228.643 86.000 C 228.722 86.000,228.835 86.469,228.895 87.042 C 228.954 87.615,229.078 88.108,229.168 88.139 C 229.259 88.169,229.333 88.338,229.333 88.514 C 229.333 88.690,229.408 88.833,229.500 88.833 C 229.592 88.833,229.667 88.942,229.667 89.076 C 229.667 89.355,230.810 90.500,231.088 90.500 C 231.144 90.500,231.303 90.612,231.440 90.750 C 231.578 90.888,231.873 91.000,232.095 91.000 C 232.318 91.000,232.500 91.075,232.500 91.167 C 232.500 91.258,232.762 91.333,233.083 91.333 C 233.404 91.333,233.667 91.408,233.667 91.500 C 233.667 91.601,234.389 91.667,235.500 91.667 C 236.611 91.667,237.333 91.601,237.333 91.500 C 237.333 91.408,237.521 91.333,237.750 91.333 C 237.979 91.333,238.167 91.267,238.167 91.185 C 238.167 91.104,238.429 90.988,238.750 90.928 C 239.071 90.867,239.333 90.747,239.333 90.659 C 239.333 90.572,239.446 90.500,239.583 90.500 C 239.721 90.500,239.833 90.425,239.833 90.333 C 239.833 90.242,239.908 90.167,240.000 90.167 C 240.092 90.167,240.167 90.429,240.167 90.750 L 240.167 91.333 242.167 91.333 L 244.167 91.333 244.167 83.495 L 244.167 75.657 242.042 75.703 L 239.917 75.750 239.833 80.631 C 239.783 83.597,239.685 85.559,239.583 85.631 C 239.371 85.783,239.019 86.331,238.892 86.708 C 238.839 86.869,238.702 87.000,238.590 87.000 C 238.477 87.000,238.249 87.150,238.083 87.333 C 237.917 87.517,237.606 87.667,237.391 87.667 C 237.176 87.667,237.000 87.742,237.000 87.833 C 237.000 87.926,236.556 88.000,236.000 88.000 C 235.444 88.000,235.000 87.926,235.000 87.833 C 235.000 87.742,234.847 87.667,234.661 87.667 C 234.281 87.667,233.333 86.780,233.333 86.425 C 233.333 86.298,233.240 86.163,233.125 86.125 C 232.966 86.072,232.904 84.831,232.864 80.861 L 232.812 75.667 230.656 75.667 L 228.500 75.667 228.500 80.833 M70.068 78.083 C 70.011 78.313,69.897 78.500,69.815 78.500 C 69.734 78.500,69.667 78.612,69.667 78.750 C 69.667 78.887,69.592 79.000,69.500 79.000 C 69.408 79.000,69.333 79.145,69.333 79.321 C 69.333 79.498,69.221 79.755,69.083 79.893 C 68.946 80.030,68.833 80.223,68.833 80.321 C 68.833 80.420,68.776 80.500,68.706 80.500 C 68.572 80.500,68.000 81.717,68.000 82.001 C 68.000 82.092,67.925 82.167,67.833 82.167 C 67.742 82.167,67.667 82.317,67.667 82.500 C 67.667 82.683,67.595 82.833,67.508 82.833 C 67.420 82.833,67.299 83.096,67.239 83.417 C 67.179 83.737,67.063 84.000,66.981 84.000 C 66.900 84.000,66.833 84.450,66.833 85.000 L 66.833 86.000 69.083 86.000 L 71.333 86.000 71.333 87.250 L 71.333 88.500 72.500 88.500 L 73.667 88.500 73.667 87.250 L 73.667 86.000 74.417 86.000 L 75.167 86.000 75.167 85.000 L 75.167 84.000 74.417 84.000 L 73.667 84.000 73.667 82.833 L 73.667 81.667 72.500 81.667 L 71.333 81.667 71.333 82.833 L 71.333 84.000 70.333 84.000 C 69.778 84.000,69.333 83.926,69.333 83.833 C 69.333 83.742,69.408 83.667,69.500 83.667 C 69.592 83.667,69.667 83.525,69.667 83.351 C 69.667 83.178,69.779 82.992,69.917 82.940 C 70.054 82.887,70.167 82.691,70.167 82.505 C 70.167 82.319,70.242 82.167,70.333 82.167 C 70.425 82.167,70.500 82.054,70.500 81.917 C 70.500 81.779,70.575 81.667,70.667 81.667 C 70.758 81.667,70.833 81.517,70.833 81.333 C 70.833 81.150,70.905 81.000,70.992 81.000 C 71.080 81.000,71.201 80.737,71.261 80.417 C 71.321 80.096,71.437 79.833,71.519 79.833 C 71.600 79.833,71.667 79.727,71.667 79.597 C 71.667 79.467,71.749 79.334,71.850 79.300 C 71.950 79.267,72.073 78.885,72.121 78.453 L 72.210 77.667 71.192 77.667 C 70.244 77.667,70.166 77.696,70.068 78.083 M78.750 77.829 C 77.870 78.056,77.327 78.322,77.230 78.574 C 77.178 78.710,76.990 78.867,76.811 78.924 C 76.625 78.983,76.445 79.234,76.389 79.513 C 76.335 79.781,76.226 80.000,76.146 80.000 C 76.066 80.000,76.000 80.188,76.000 80.417 C 76.000 80.646,75.925 80.833,75.833 80.833 C 75.730 80.833,75.667 81.750,75.667 83.250 C 75.667 84.750,75.730 85.667,75.833 85.667 C 75.925 85.667,76.000 85.854,76.000 86.083 C 76.000 86.313,76.070 86.500,76.155 86.500 C 76.241 86.500,76.364 86.669,76.429 86.875 C 76.587 87.376,77.308 87.992,77.875 88.112 C 78.127 88.165,78.333 88.274,78.333 88.354 C 78.333 88.434,79.158 88.500,80.167 88.500 C 81.175 88.500,82.000 88.433,82.000 88.351 C 82.000 88.270,82.184 88.157,82.410 88.100 C 82.877 87.983,83.667 87.306,83.667 87.023 C 83.667 86.918,83.742 86.833,83.833 86.833 C 83.925 86.833,84.000 86.690,84.000 86.514 C 84.000 86.338,84.094 86.163,84.208 86.125 C 84.364 86.073,84.417 85.330,84.417 83.167 C 84.417 81.004,84.364 80.260,84.208 80.208 C 84.094 80.170,84.000 80.033,84.000 79.903 C 84.000 79.773,83.925 79.667,83.833 79.667 C 83.742 79.667,83.667 79.557,83.667 79.422 C 83.667 78.293,80.693 77.330,78.750 77.829 M85.167 79.500 L 85.167 81.333 86.250 81.333 L 87.333 81.333 87.333 80.583 L 87.333 79.833 88.911 79.833 C 90.472 79.833,90.771 79.991,90.177 80.500 C 89.971 80.677,89.167 82.436,89.167 82.711 C 89.167 82.870,89.092 83.000,89.000 83.000 C 88.908 83.000,88.833 83.150,88.833 83.333 C 88.833 83.517,88.762 83.667,88.674 83.667 C 88.587 83.667,88.466 83.929,88.406 84.250 C 88.345 84.571,88.230 84.833,88.148 84.833 C 88.067 84.833,88.000 85.021,88.000 85.250 C 88.000 85.479,87.943 85.667,87.873 85.667 C 87.739 85.667,87.167 86.883,87.167 87.168 C 87.167 87.259,87.092 87.333,87.000 87.333 C 86.908 87.333,86.833 87.596,86.833 87.917 L 86.833 88.500 87.997 88.500 C 89.099 88.500,89.166 88.478,89.265 88.083 C 89.322 87.854,89.436 87.667,89.518 87.667 C 89.600 87.667,89.667 87.479,89.667 87.250 C 89.667 87.021,89.742 86.833,89.833 86.833 C 89.925 86.833,90.000 86.683,90.000 86.500 C 90.000 86.317,90.072 86.167,90.159 86.167 C 90.247 86.167,90.367 85.904,90.428 85.583 C 90.488 85.262,90.604 85.000,90.685 85.000 C 90.767 85.000,90.833 84.813,90.833 84.583 C 90.833 84.354,90.905 84.167,90.992 84.167 C 91.080 84.167,91.201 83.904,91.261 83.583 C 91.321 83.262,91.437 83.000,91.519 83.000 C 91.600 83.000,91.667 82.887,91.667 82.750 C 91.667 82.612,91.742 82.500,91.833 82.500 C 91.925 82.500,92.000 82.350,92.000 82.167 C 92.000 81.983,92.065 81.833,92.145 81.833 C 92.225 81.833,92.339 81.533,92.397 81.167 C 92.456 80.800,92.578 80.500,92.669 80.500 C 92.759 80.500,92.833 80.350,92.833 80.167 C 92.833 79.983,92.908 79.833,93.000 79.833 C 93.094 79.833,93.167 79.361,93.167 78.750 L 93.167 77.667 89.167 77.667 L 85.167 77.667 85.167 79.500 M95.458 77.943 C 95.115 78.086,94.833 78.269,94.833 78.351 C 94.833 78.433,94.721 78.500,94.583 78.500 C 94.446 78.500,94.333 78.585,94.333 78.689 C 94.333 78.793,94.165 79.024,93.958 79.203 C 93.514 79.588,93.369 83.149,93.792 83.291 C 93.906 83.330,94.000 83.454,94.000 83.568 C 94.000 83.819,94.698 84.500,94.955 84.500 C 95.056 84.500,95.169 84.590,95.205 84.699 C 95.308 85.007,98.644 84.974,98.836 84.662 C 99.096 84.241,99.230 84.653,98.986 85.125 C 98.433 86.197,97.946 86.500,96.777 86.500 C 96.181 86.500,95.669 86.423,95.638 86.329 C 95.532 86.012,94.333 85.919,94.333 86.228 C 94.333 86.378,94.258 86.500,94.167 86.500 C 94.075 86.500,94.000 86.612,94.000 86.750 C 94.000 86.888,93.920 87.000,93.822 87.000 C 93.359 87.000,93.762 87.909,94.292 88.060 C 94.590 88.145,94.833 88.279,94.833 88.357 C 94.833 88.436,95.733 88.500,96.833 88.500 C 98.056 88.500,98.833 88.435,98.833 88.333 C 98.833 88.242,98.955 88.167,99.103 88.167 C 99.431 88.167,100.833 86.738,100.833 86.405 C 100.833 86.274,100.908 86.167,101.000 86.167 C 101.092 86.167,101.167 85.985,101.167 85.764 C 101.167 85.542,101.260 85.330,101.373 85.292 C 101.661 85.196,101.654 80.635,101.366 80.539 C 101.256 80.502,101.167 80.319,101.167 80.131 C 101.167 79.943,101.027 79.668,100.857 79.520 C 100.687 79.371,100.494 79.081,100.429 78.875 C 100.363 78.664,100.176 78.500,100.003 78.500 C 99.833 78.500,99.669 78.422,99.637 78.327 C 99.439 77.734,96.594 77.472,95.458 77.943 M310.639 79.168 C 310.669 79.259,310.773 79.333,310.869 79.333 C 311.226 79.333,312.611 80.928,312.717 81.462 L 312.825 82.000 308.829 82.000 C 304.944 82.000,304.833 81.991,304.833 81.667 C 304.833 81.483,304.908 81.333,305.000 81.333 C 305.092 81.333,305.167 81.255,305.167 81.160 C 305.167 80.970,305.307 80.787,306.122 79.912 C 306.418 79.594,306.775 79.333,306.914 79.333 C 307.053 79.333,307.167 79.263,307.167 79.178 C 307.167 78.825,310.520 78.815,310.639 79.168 M345.167 79.167 C 345.167 79.258,345.317 79.333,345.500 79.333 C 345.683 79.333,345.833 79.408,345.833 79.500 C 345.833 79.592,345.940 79.667,346.070 79.667 C 346.599 79.667,347.840 81.172,347.946 81.940 C 348.001 82.345,348.111 82.716,348.190 82.764 C 348.269 82.813,348.333 83.144,348.333 83.500 C 348.333 83.856,348.269 84.187,348.190 84.236 C 348.111 84.284,348.001 84.658,347.945 85.066 C 347.838 85.848,346.568 87.333,346.007 87.333 C 345.911 87.333,345.833 87.408,345.833 87.500 C 345.833 87.592,345.683 87.667,345.500 87.667 C 345.317 87.667,345.167 87.742,345.167 87.833 C 345.167 87.927,344.694 88.000,344.083 88.000 C 343.472 88.000,343.000 87.927,343.000 87.833 C 343.000 87.742,342.850 87.667,342.667 87.667 C 342.483 87.667,342.333 87.592,342.333 87.500 C 342.333 87.408,342.230 87.333,342.104 87.333 C 341.977 87.333,341.781 87.221,341.667 87.083 C 341.553 86.946,341.318 86.833,341.146 86.833 C 340.943 86.833,340.833 86.715,340.833 86.495 C 340.833 86.309,340.721 86.113,340.583 86.060 C 340.446 86.008,340.333 85.829,340.333 85.663 C 340.333 85.497,340.240 85.330,340.125 85.292 C 339.976 85.242,339.917 84.730,339.917 83.500 C 339.917 82.270,339.976 81.758,340.125 81.708 C 340.240 81.670,340.333 81.503,340.333 81.337 C 340.333 81.171,340.446 80.992,340.583 80.940 C 340.721 80.887,340.833 80.691,340.833 80.505 C 340.833 80.278,340.943 80.167,341.167 80.167 C 341.350 80.167,341.500 80.093,341.500 80.003 C 341.500 79.913,341.688 79.793,341.917 79.735 C 342.146 79.678,342.333 79.564,342.333 79.482 C 342.333 79.400,342.483 79.333,342.667 79.333 C 342.850 79.333,343.000 79.258,343.000 79.167 C 343.000 79.073,343.472 79.000,344.083 79.000 C 344.694 79.000,345.167 79.073,345.167 79.167 M81.276 80.153 C 81.403 80.335,81.618 80.594,81.754 80.730 C 81.889 80.865,82.000 81.132,82.000 81.321 C 82.000 81.511,82.075 81.667,82.167 81.667 C 82.266 81.667,82.333 82.306,82.333 83.250 C 82.333 84.194,82.266 84.833,82.167 84.833 C 82.075 84.833,82.000 84.946,82.000 85.083 C 82.000 85.221,81.925 85.333,81.833 85.333 C 81.742 85.333,81.667 85.446,81.667 85.583 C 81.667 85.937,81.061 86.500,80.681 86.500 C 80.505 86.500,80.317 86.594,80.264 86.708 C 80.186 86.875,80.147 86.875,80.069 86.708 C 80.016 86.594,79.791 86.500,79.569 86.500 C 79.348 86.500,79.167 86.430,79.167 86.345 C 79.167 86.259,79.031 86.146,78.865 86.093 C 78.182 85.877,77.503 81.333,78.153 81.333 C 78.238 81.333,78.359 81.094,78.424 80.801 C 78.674 79.663,80.622 79.220,81.276 80.153 M98.307 80.029 C 98.338 80.108,98.469 80.278,98.598 80.408 C 98.728 80.537,98.833 80.723,98.833 80.821 C 98.833 80.920,98.908 81.000,99.000 81.000 C 99.092 81.000,99.167 81.150,99.167 81.333 C 99.167 81.517,99.092 81.667,99.000 81.667 C 98.908 81.667,98.831 81.760,98.828 81.875 C 98.813 82.429,98.152 82.893,97.359 82.905 C 95.720 82.930,95.107 81.338,96.265 80.063 C 96.600 79.694,98.164 79.668,98.307 80.029 M190.167 85.333 C 190.167 85.792,190.092 86.167,190.000 86.167 C 189.908 86.167,189.833 86.276,189.833 86.410 C 189.833 86.806,188.548 87.999,188.003 88.108 C 187.726 88.163,187.500 88.274,187.500 88.354 C 187.500 88.434,187.050 88.500,186.500 88.500 C 185.944 88.500,185.500 88.426,185.500 88.333 C 185.500 88.242,185.391 88.167,185.258 88.167 C 184.944 88.167,184.167 87.390,184.167 87.076 C 184.167 86.942,184.092 86.833,184.000 86.833 C 183.908 86.833,183.833 86.683,183.833 86.500 C 183.833 86.317,183.908 86.167,184.000 86.167 C 184.092 86.167,184.167 86.066,184.167 85.942 C 184.167 85.341,184.832 84.933,185.924 84.863 C 186.516 84.825,187.000 84.728,187.000 84.647 C 187.000 84.566,187.713 84.500,188.583 84.500 L 190.167 84.500 190.167 85.333 M327.962 85.542 C 327.867 86.721,326.978 87.868,325.992 88.085 C 325.721 88.145,325.500 88.262,325.500 88.347 C 325.500 88.431,325.050 88.500,324.500 88.500 C 323.944 88.500,323.500 88.426,323.500 88.333 C 323.500 88.242,323.362 88.167,323.194 88.167 C 322.882 88.167,322.000 87.306,322.000 87.001 C 322.000 86.909,321.925 86.833,321.833 86.833 C 321.742 86.833,321.667 86.683,321.667 86.500 C 321.667 86.317,321.742 86.167,321.833 86.167 C 321.925 86.167,322.000 86.088,322.000 85.992 C 322.000 85.480,322.900 84.933,323.859 84.864 C 324.395 84.825,324.833 84.727,324.833 84.647 C 324.833 84.566,325.556 84.500,326.439 84.500 L 328.046 84.500 327.962 85.542 M103.333 106.751 C 103.118 106.979,102.877 107.167,102.797 107.167 C 102.717 107.167,102.450 107.354,102.203 107.583 C 101.956 107.813,101.665 108.000,101.557 108.000 C 101.449 108.000,101.336 108.056,101.306 108.125 C 101.217 108.325,99.919 109.167,99.699 109.167 C 99.590 109.167,99.500 109.242,99.500 109.333 C 99.500 109.425,99.388 109.500,99.250 109.500 C 99.112 109.500,99.000 109.570,99.000 109.655 C 99.000 109.741,98.838 109.862,98.639 109.925 C 97.054 110.428,97.275 112.417,98.916 112.417 C 99.471 112.417,99.703 112.300,100.320 111.708 C 100.727 111.319,101.070 111.000,101.083 111.000 C 101.164 111.000,104.666 107.425,104.662 107.347 C 104.659 107.294,104.447 107.044,104.190 106.792 L 103.724 106.335 103.333 106.751 M103.667 109.517 C 99.995 113.006,100.167 112.807,100.167 113.578 C 100.167 114.550,100.582 115.000,101.478 115.000 C 101.857 115.000,102.167 114.925,102.167 114.833 C 102.167 114.742,102.260 114.664,102.375 114.661 C 102.490 114.658,102.958 114.283,103.417 113.827 C 103.875 113.370,104.340 113.031,104.450 113.073 C 104.560 113.115,104.613 113.055,104.569 112.939 C 104.524 112.823,104.922 112.312,105.452 111.802 C 105.983 111.292,106.590 110.688,106.802 110.458 L 107.187 110.040 106.323 109.104 C 105.241 107.930,105.355 107.913,103.667 109.517 M106.689 111.658 C 106.113 112.215,105.572 112.628,105.487 112.576 C 105.403 112.523,105.333 112.559,105.333 112.655 C 105.333 112.751,104.733 113.408,104.000 114.114 C 103.267 114.820,102.667 115.496,102.667 115.616 C 102.667 115.735,102.592 115.833,102.500 115.833 C 102.069 115.833,102.367 116.738,103.000 117.353 C 103.708 118.040,104.071 118.157,104.227 117.750 C 104.280 117.612,104.411 117.500,104.518 117.500 C 104.730 117.500,104.687 117.539,107.542 114.810 C 109.818 112.634,109.745 112.853,108.619 111.614 L 107.738 110.645 106.689 111.658 M107.381 115.875 C 106.050 117.181,104.858 118.349,104.731 118.470 C 104.227 118.951,104.453 119.301,105.375 119.470 C 106.383 119.656,107.667 119.651,107.667 119.462 C 107.667 119.391,107.812 119.333,107.990 119.333 C 108.168 119.333,108.360 119.258,108.417 119.167 C 108.473 119.075,108.665 119.000,108.843 119.000 C 109.021 119.000,109.167 118.925,109.167 118.833 C 109.167 118.742,109.350 118.667,109.573 118.667 C 109.797 118.667,110.025 118.595,110.079 118.507 C 110.133 118.420,110.287 118.390,110.422 118.442 C 110.557 118.493,110.667 118.453,110.667 118.351 C 110.667 118.250,110.818 118.167,111.002 118.167 C 111.187 118.167,111.506 118.080,111.711 117.974 C 112.551 117.540,112.687 117.493,112.840 117.588 C 112.928 117.642,113.000 117.607,113.000 117.510 C 113.000 117.413,113.112 117.333,113.250 117.333 C 113.699 117.333,113.191 116.651,111.032 114.351 C 109.979 113.229,110.149 113.158,107.381 115.875 " stroke="none" fill="#1c1c1c" fill-rule="evenodd"></path><path id="path1" d="M81.625 39.791 C 80.915 39.822,80.333 39.919,80.333 40.007 C 80.333 40.095,79.808 40.167,79.167 40.167 C 78.525 40.167,78.000 40.239,78.000 40.327 C 78.000 40.415,77.381 40.508,76.625 40.535 L 75.250 40.583 75.200 41.542 C 75.173 42.069,75.079 42.500,74.992 42.500 C 74.905 42.500,74.833 42.950,74.833 43.500 C 74.833 44.056,74.759 44.500,74.667 44.500 C 74.575 44.500,74.499 44.931,74.497 45.458 C 74.487 48.365,74.004 49.571,72.776 49.755 C 72.349 49.819,72.000 49.938,72.000 50.019 C 72.000 50.100,71.813 50.167,71.583 50.167 C 71.354 50.167,71.167 50.242,71.167 50.333 C 71.167 50.425,71.017 50.500,70.833 50.500 C 70.650 50.500,70.500 50.574,70.500 50.665 C 70.500 50.755,70.200 50.877,69.833 50.936 C 69.467 50.995,69.167 51.108,69.167 51.188 C 69.167 51.268,69.017 51.333,68.833 51.333 C 68.650 51.333,68.500 51.400,68.500 51.482 C 68.500 51.564,68.313 51.678,68.083 51.735 C 67.854 51.793,67.667 51.913,67.667 52.003 C 67.667 52.093,67.479 52.167,67.250 52.167 C 67.021 52.167,66.833 52.097,66.833 52.011 C 66.833 51.926,66.665 51.803,66.458 51.737 C 66.252 51.672,65.971 51.490,65.833 51.333 C 65.696 51.176,65.415 50.994,65.208 50.929 C 65.002 50.864,64.833 50.741,64.833 50.655 C 64.833 50.570,64.691 50.500,64.518 50.500 C 64.344 50.500,64.158 50.384,64.103 50.242 C 64.049 50.100,63.778 49.905,63.502 49.809 C 63.226 49.713,63.000 49.566,63.000 49.484 C 63.000 49.401,62.887 49.333,62.750 49.333 C 62.612 49.333,62.500 49.266,62.500 49.185 C 62.500 49.103,62.313 48.989,62.083 48.932 C 61.854 48.874,61.667 48.753,61.667 48.663 C 61.667 48.574,61.589 48.500,61.493 48.500 C 61.398 48.500,61.158 48.350,60.962 48.167 C 60.374 47.620,59.167 47.966,59.167 48.681 C 59.167 48.752,58.998 48.862,58.792 48.924 C 58.429 49.033,58.049 49.338,57.298 50.125 C 57.101 50.331,56.876 50.500,56.798 50.500 C 56.720 50.500,56.272 50.875,55.801 51.333 C 55.331 51.792,54.880 52.167,54.801 52.167 C 54.721 52.167,54.433 52.394,54.161 52.672 C 53.677 53.167,53.509 53.667,53.826 53.667 C 53.913 53.667,54.037 53.948,54.100 54.292 C 54.163 54.635,54.264 54.954,54.324 55.000 C 54.471 55.112,55.333 56.967,55.333 57.171 C 55.333 57.260,55.408 57.333,55.500 57.333 C 55.592 57.333,55.667 57.446,55.667 57.583 C 55.667 57.721,55.733 57.833,55.815 57.833 C 55.896 57.833,56.014 58.105,56.076 58.437 C 56.179 58.983,56.446 59.614,56.668 59.833 C 56.918 60.081,57.199 61.239,57.023 61.298 C 56.919 61.333,56.833 61.467,56.833 61.597 C 56.833 61.727,56.767 61.833,56.686 61.833 C 56.604 61.833,56.413 62.096,56.261 62.417 C 56.109 62.737,55.913 63.000,55.826 63.000 C 55.738 63.000,55.667 63.150,55.667 63.333 C 55.667 63.517,55.609 63.667,55.540 63.667 C 55.412 63.667,55.111 64.161,54.904 64.708 C 54.844 64.869,54.728 65.000,54.647 65.000 C 54.566 65.000,54.500 65.150,54.500 65.333 C 54.500 65.517,54.428 65.667,54.341 65.667 C 54.253 65.667,54.133 65.929,54.072 66.250 C 54.012 66.571,53.896 66.833,53.815 66.833 C 53.733 66.833,53.667 66.914,53.667 67.012 C 53.667 67.600,53.316 67.644,44.958 68.100 L 43.333 68.189 43.333 68.761 C 43.333 69.076,43.266 69.333,43.184 69.333 C 43.101 69.333,42.981 69.858,42.917 70.500 C 42.852 71.142,42.732 71.667,42.650 71.667 C 42.567 71.667,42.500 71.929,42.500 72.250 C 42.500 72.571,42.434 72.833,42.353 72.833 C 42.272 72.833,42.153 73.396,42.089 74.083 C 42.024 74.771,41.903 75.333,41.819 75.333 C 41.735 75.333,41.667 75.708,41.667 76.167 C 41.667 76.796,41.728 77.000,41.917 77.000 C 42.054 77.000,42.167 77.075,42.167 77.167 C 42.167 77.258,42.317 77.333,42.500 77.333 C 42.683 77.333,42.833 77.405,42.833 77.492 C 42.833 77.580,43.096 77.701,43.417 77.761 C 43.737 77.821,44.000 77.937,44.000 78.019 C 44.000 78.100,44.112 78.167,44.250 78.167 C 44.387 78.167,44.500 78.226,44.500 78.299 C 44.500 78.372,44.837 78.571,45.250 78.741 C 45.663 78.911,46.000 79.114,46.000 79.192 C 46.000 79.270,46.112 79.333,46.250 79.333 C 46.387 79.333,46.500 79.405,46.500 79.492 C 46.500 79.580,46.762 79.701,47.083 79.761 C 47.404 79.821,47.667 79.937,47.667 80.019 C 47.667 80.100,47.779 80.167,47.917 80.167 C 48.054 80.167,48.167 80.242,48.167 80.333 C 48.167 80.425,48.317 80.500,48.500 80.500 C 48.683 80.500,48.833 80.575,48.833 80.667 C 48.833 80.758,48.940 80.833,49.071 80.833 C 49.202 80.833,49.409 80.932,49.530 81.052 C 49.651 81.172,49.983 81.373,50.267 81.498 L 50.784 81.726 50.885 84.319 C 50.946 85.877,51.056 86.935,51.160 86.970 C 51.605 87.118,50.262 89.000,49.712 89.000 C 49.625 89.000,49.321 89.244,49.036 89.542 C 48.751 89.840,48.420 90.175,48.301 90.287 C 48.181 90.399,48.008 90.566,47.917 90.658 C 47.825 90.749,47.544 91.017,47.292 91.253 C 47.040 91.489,46.833 91.753,46.833 91.841 C 46.833 91.928,46.712 92.000,46.563 92.000 C 46.266 92.000,44.167 94.037,44.167 94.325 C 44.167 94.514,44.513 95.191,44.683 95.333 C 44.737 95.379,44.835 95.642,44.900 95.917 C 45.065 96.614,45.391 97.333,45.541 97.333 C 45.610 97.333,45.667 97.483,45.667 97.667 C 45.667 97.850,45.732 98.000,45.812 98.000 C 45.892 98.000,46.005 98.300,46.064 98.667 C 46.123 99.033,46.245 99.333,46.335 99.333 C 46.426 99.333,46.500 99.483,46.500 99.667 C 46.500 99.850,46.565 100.000,46.645 100.000 C 46.725 100.000,46.839 100.300,46.897 100.667 C 46.956 101.033,47.078 101.333,47.169 101.333 C 47.259 101.333,47.333 101.483,47.333 101.667 C 47.333 101.956,47.444 102.000,48.167 102.000 C 48.625 102.000,49.000 101.925,49.000 101.833 C 49.000 101.742,49.413 101.667,49.917 101.667 C 50.421 101.667,50.833 101.592,50.833 101.500 C 50.833 101.408,51.208 101.333,51.667 101.333 C 52.125 101.333,52.500 101.266,52.500 101.185 C 52.500 101.103,53.251 100.982,54.168 100.917 C 55.085 100.851,55.877 100.730,55.928 100.649 C 56.178 100.243,57.333 100.777,57.333 101.298 C 57.333 101.422,57.596 101.770,57.917 102.073 C 58.237 102.375,58.500 102.674,58.500 102.737 C 58.500 102.800,58.856 103.223,59.292 103.676 C 59.727 104.129,60.177 104.609,60.292 104.743 C 60.529 105.019,60.576 106.000,60.353 106.000 C 60.272 106.000,60.153 106.563,60.089 107.250 C 60.024 107.938,59.903 108.500,59.819 108.500 C 59.735 108.500,59.667 108.763,59.667 109.083 C 59.667 109.404,59.602 109.667,59.524 109.667 C 59.445 109.667,59.331 110.210,59.269 110.875 C 59.208 111.540,59.085 112.108,58.995 112.139 C 58.906 112.169,58.833 112.451,58.833 112.764 C 58.833 113.077,58.758 113.333,58.667 113.333 C 58.575 113.333,58.500 113.643,58.500 114.022 C 58.500 114.703,58.935 115.333,59.405 115.333 C 59.509 115.333,59.701 115.483,59.833 115.666 C 59.965 115.849,60.316 116.044,60.614 116.100 C 60.940 116.161,61.195 116.327,61.256 116.517 C 61.311 116.691,61.501 116.833,61.678 116.833 C 61.855 116.833,62.000 116.907,62.000 116.997 C 62.000 117.087,62.188 117.207,62.417 117.265 C 62.646 117.322,62.833 117.436,62.833 117.518 C 62.833 117.600,62.946 117.667,63.083 117.667 C 63.221 117.667,63.333 117.737,63.333 117.822 C 63.333 117.908,63.502 118.031,63.708 118.096 C 63.915 118.161,64.205 118.354,64.353 118.524 C 64.501 118.694,64.745 118.833,64.895 118.833 C 65.044 118.833,65.167 118.908,65.167 119.000 C 65.167 119.561,65.938 119.002,67.874 117.038 C 67.989 116.921,68.458 116.454,68.917 115.999 C 69.375 115.545,69.804 115.115,69.870 115.045 C 69.994 114.914,70.688 114.217,70.994 113.917 C 71.088 113.825,71.426 113.469,71.746 113.125 C 72.298 112.531,73.333 112.222,73.333 112.650 C 73.333 112.733,73.783 112.853,74.333 112.917 C 74.883 112.981,75.333 113.100,75.333 113.183 C 75.333 113.266,75.671 113.333,76.083 113.333 C 76.496 113.333,76.833 113.404,76.833 113.491 C 76.833 113.578,77.227 113.672,77.708 113.700 C 78.430 113.741,78.612 113.816,78.748 114.125 C 78.838 114.331,78.966 114.500,79.032 114.500 C 79.098 114.500,79.201 114.763,79.261 115.083 C 79.321 115.404,79.437 115.667,79.519 115.667 C 79.600 115.667,79.667 115.779,79.667 115.917 C 79.667 116.054,79.742 116.167,79.833 116.167 C 79.925 116.167,80.000 116.354,80.000 116.583 C 80.000 116.813,80.067 117.000,80.148 117.000 C 80.230 117.000,80.345 117.263,80.406 117.583 C 80.466 117.904,80.587 118.167,80.674 118.167 C 80.762 118.167,80.833 118.317,80.833 118.500 C 80.833 118.683,80.908 118.833,81.000 118.833 C 81.092 118.833,81.167 119.006,81.167 119.218 C 81.167 119.430,81.277 119.749,81.411 119.926 C 81.546 120.104,81.658 120.381,81.661 120.542 C 81.664 120.702,81.742 120.833,81.833 120.833 C 81.925 120.833,82.000 120.946,82.000 121.083 C 82.000 121.221,82.075 121.333,82.167 121.333 C 82.258 121.333,82.333 121.483,82.333 121.667 C 82.333 121.974,82.444 122.000,83.750 122.000 C 84.583 122.000,85.167 121.931,85.167 121.833 C 85.167 121.737,85.694 121.667,86.417 121.667 C 87.139 121.667,87.667 121.596,87.667 121.500 C 87.667 121.408,88.098 121.333,88.625 121.331 C 90.167 121.329,90.833 121.172,90.833 120.812 C 90.833 120.640,90.899 120.500,90.980 120.500 C 91.061 120.500,91.181 119.487,91.247 118.250 C 91.313 117.013,91.435 116.000,91.517 116.000 C 91.599 116.000,91.667 115.554,91.667 115.010 C 91.667 114.465,91.742 113.973,91.833 113.917 C 91.925 113.860,92.000 113.593,92.000 113.323 C 92.000 112.999,92.084 112.833,92.250 112.833 C 92.388 112.833,92.500 112.758,92.500 112.667 C 92.500 112.575,92.725 112.500,93.000 112.500 C 93.275 112.500,93.500 112.435,93.500 112.355 C 93.500 112.275,93.768 112.167,94.096 112.114 C 94.799 112.000,95.667 111.638,95.667 111.459 C 95.667 111.390,95.817 111.333,96.000 111.333 C 96.183 111.333,96.333 111.275,96.333 111.203 C 96.333 111.132,96.558 110.988,96.833 110.884 C 97.649 110.576,97.596 109.667,96.762 109.667 C 96.618 109.667,96.500 109.590,96.500 109.497 C 96.500 109.404,96.237 109.203,95.917 109.050 C 95.596 108.897,95.333 108.710,95.333 108.636 C 95.333 108.561,95.221 108.500,95.083 108.500 C 94.946 108.500,94.833 108.426,94.833 108.335 C 94.833 108.245,94.532 108.122,94.163 108.063 C 93.794 108.004,93.452 107.891,93.403 107.811 C 93.354 107.732,93.131 107.667,92.907 107.667 C 92.683 107.667,92.500 107.592,92.500 107.500 C 92.500 107.408,92.317 107.333,92.093 107.333 C 91.869 107.333,91.644 107.264,91.591 107.180 C 91.539 107.095,91.010 106.974,90.415 106.910 C 89.820 106.847,89.333 106.728,89.333 106.647 C 89.333 106.566,88.958 106.500,88.500 106.500 C 88.042 106.500,87.667 106.434,87.667 106.353 C 87.667 106.273,86.654 106.153,85.417 106.086 C 84.179 106.020,83.167 105.899,83.167 105.816 C 83.167 105.734,82.717 105.667,82.167 105.667 C 81.611 105.667,81.167 105.593,81.167 105.500 C 81.167 105.408,80.754 105.333,80.250 105.333 C 79.746 105.333,79.333 105.266,79.333 105.183 C 79.333 105.100,78.883 104.981,78.333 104.917 C 77.783 104.853,77.333 104.733,77.333 104.650 C 77.333 104.568,77.146 104.500,76.917 104.500 C 76.688 104.500,76.500 104.428,76.500 104.341 C 76.500 104.253,76.237 104.133,75.917 104.072 C 75.596 104.012,75.333 103.896,75.333 103.815 C 75.333 103.733,75.221 103.667,75.083 103.667 C 74.946 103.667,74.833 103.592,74.833 103.500 C 74.833 103.408,74.727 103.333,74.597 103.333 C 74.319 103.333,73.275 102.806,73.194 102.625 C 73.164 102.556,72.995 102.500,72.819 102.500 C 72.644 102.500,72.500 102.430,72.500 102.345 C 72.500 102.259,72.331 102.136,72.125 102.071 C 71.919 102.006,71.629 101.813,71.480 101.643 C 71.332 101.473,71.160 101.333,71.098 101.333 C 70.952 101.333,70.585 101.028,70.045 100.458 C 69.807 100.206,69.547 100.000,69.469 100.000 C 69.260 100.000,67.667 98.390,67.667 98.179 C 67.667 98.081,67.610 98.000,67.542 98.000 C 67.473 97.999,67.267 97.774,67.083 97.499 C 66.900 97.223,66.619 96.956,66.458 96.904 C 66.298 96.853,66.167 96.664,66.167 96.484 C 66.167 96.304,66.054 96.113,65.917 96.060 C 65.779 96.008,65.667 95.822,65.667 95.649 C 65.667 95.475,65.609 95.333,65.538 95.333 C 65.467 95.333,65.262 95.052,65.082 94.708 C 64.902 94.365,64.632 93.971,64.483 93.833 C 64.334 93.696,64.158 93.339,64.092 93.042 C 64.027 92.744,63.904 92.500,63.820 92.500 C 63.736 92.500,63.667 92.319,63.667 92.097 C 63.667 91.876,63.610 91.669,63.542 91.639 C 63.388 91.571,62.833 89.975,62.833 89.603 C 62.833 89.455,62.758 89.333,62.667 89.333 C 62.575 89.333,62.500 89.152,62.500 88.931 C 62.500 88.709,62.428 88.503,62.340 88.472 C 62.252 88.442,62.129 87.798,62.066 87.042 C 62.003 86.285,61.888 85.667,61.809 85.667 C 61.731 85.667,61.667 84.242,61.667 82.500 C 61.667 80.758,61.731 79.333,61.809 79.333 C 61.888 79.333,62.003 78.715,62.066 77.958 C 62.129 77.202,62.252 76.558,62.340 76.528 C 62.428 76.497,62.500 76.291,62.500 76.069 C 62.500 75.848,62.575 75.667,62.667 75.667 C 62.758 75.667,62.833 75.484,62.833 75.260 C 62.833 75.036,62.898 74.813,62.978 74.764 C 63.058 74.714,63.171 74.372,63.230 74.004 C 63.289 73.635,63.394 73.333,63.463 73.333 C 63.595 73.333,64.167 72.115,64.167 71.832 C 64.167 71.741,64.242 71.667,64.333 71.667 C 64.425 71.667,64.500 71.517,64.500 71.333 C 64.500 71.150,64.575 71.000,64.667 71.000 C 64.758 71.000,64.833 70.887,64.833 70.750 C 64.833 70.612,64.903 70.500,64.989 70.500 C 65.074 70.500,65.197 70.331,65.263 70.125 C 65.328 69.919,65.520 69.629,65.691 69.480 C 65.861 69.332,66.000 69.135,66.000 69.043 C 66.000 68.951,66.262 68.589,66.582 68.240 C 66.902 67.890,67.206 67.472,67.257 67.311 C 67.308 67.149,67.497 66.971,67.675 66.914 C 67.854 66.857,68.000 66.744,68.000 66.663 C 68.000 66.471,68.804 65.667,68.996 65.667 C 69.078 65.667,69.192 65.517,69.250 65.333 C 69.308 65.150,69.477 65.000,69.624 65.000 C 69.772 65.000,70.123 64.748,70.405 64.441 C 70.687 64.134,71.086 63.829,71.292 63.763 C 71.498 63.698,71.667 63.574,71.667 63.489 C 71.667 63.403,71.779 63.333,71.917 63.333 C 72.054 63.333,72.167 63.270,72.167 63.192 C 72.167 63.114,72.504 62.911,72.917 62.741 C 73.329 62.571,73.667 62.372,73.667 62.299 C 73.667 62.226,73.779 62.167,73.917 62.167 C 74.054 62.167,74.167 62.100,74.167 62.019 C 74.167 61.937,74.429 61.821,74.750 61.761 C 75.071 61.701,75.333 61.580,75.333 61.492 C 75.333 61.405,75.521 61.333,75.750 61.333 C 75.979 61.333,76.167 61.268,76.167 61.189 C 76.167 61.061,76.885 60.855,78.375 60.555 C 78.627 60.504,78.833 60.396,78.833 60.314 C 78.833 60.233,79.165 60.167,79.569 60.167 C 79.976 60.167,80.334 60.081,80.370 59.975 C 80.460 59.705,87.105 59.705,87.375 59.975 C 87.480 60.080,87.852 60.167,88.200 60.167 C 88.548 60.167,88.833 60.233,88.833 60.314 C 88.833 60.396,89.040 60.504,89.292 60.555 C 90.781 60.855,91.500 61.061,91.500 61.189 C 91.500 61.268,91.688 61.333,91.917 61.333 C 92.146 61.333,92.333 61.405,92.333 61.492 C 92.333 61.580,92.596 61.701,92.917 61.761 C 93.237 61.821,93.500 61.937,93.500 62.019 C 93.500 62.100,93.612 62.167,93.750 62.167 C 93.888 62.167,94.000 62.224,94.000 62.294 C 94.000 62.418,95.207 63.000,95.464 63.000 C 95.535 63.000,95.701 63.150,95.833 63.333 C 95.965 63.517,96.166 63.667,96.279 63.667 C 96.392 63.667,96.672 63.854,96.902 64.083 C 97.131 64.313,97.362 64.500,97.416 64.500 C 97.638 64.500,101.500 68.286,101.500 68.503 C 101.500 68.585,101.679 68.830,101.897 69.048 C 102.115 69.266,102.345 69.607,102.408 69.806 C 102.471 70.004,102.592 70.167,102.678 70.167 C 102.763 70.167,102.833 70.275,102.833 70.407 C 102.833 70.540,102.973 70.746,103.144 70.866 C 103.315 70.985,103.509 71.327,103.574 71.625 C 103.640 71.923,103.762 72.167,103.847 72.167 C 103.931 72.167,104.000 72.317,104.000 72.500 C 104.000 72.683,104.069 72.833,104.153 72.833 C 104.238 72.833,104.356 73.058,104.417 73.333 C 104.477 73.608,104.596 73.833,104.680 73.833 C 104.764 73.833,104.833 74.016,104.833 74.240 C 104.833 74.464,104.908 74.693,105.000 74.750 C 105.092 74.807,105.167 75.036,105.167 75.260 C 105.167 75.484,105.235 75.667,105.318 75.667 C 105.401 75.667,105.520 76.042,105.583 76.500 C 105.646 76.958,105.766 77.333,105.849 77.333 C 105.932 77.333,106.000 77.665,106.000 78.069 C 106.000 78.510,106.084 78.833,106.208 78.875 C 106.500 78.973,106.489 87.865,106.197 87.962 C 105.964 88.040,105.913 91.667,106.144 91.667 C 106.223 91.667,106.329 92.360,106.380 93.208 C 106.475 94.799,106.816 96.500,107.039 96.500 C 107.109 96.500,107.167 96.688,107.167 96.917 C 107.167 97.146,107.242 97.333,107.333 97.333 C 107.425 97.333,107.500 97.491,107.500 97.683 C 107.500 98.144,107.989 99.180,108.367 99.520 C 108.759 99.872,108.745 99.966,108.293 100.030 C 108.072 100.062,107.824 100.287,107.684 100.583 C 107.554 100.858,107.385 101.108,107.307 101.139 C 107.230 101.169,107.167 101.301,107.167 101.431 C 107.167 101.560,107.097 101.667,107.011 101.667 C 106.926 101.667,106.811 101.808,106.756 101.981 C 106.701 102.153,106.434 102.528,106.162 102.812 C 105.889 103.097,105.667 103.406,105.667 103.500 C 105.667 103.593,105.479 103.832,105.250 104.031 C 105.021 104.230,104.833 104.456,104.833 104.533 C 104.833 104.610,104.555 104.943,104.215 105.273 L 103.597 105.873 104.382 106.594 C 104.814 106.990,105.167 107.393,105.167 107.490 C 105.167 107.587,105.260 107.670,105.375 107.673 C 105.490 107.677,105.862 108.033,106.203 108.465 C 106.543 108.897,107.535 110.000,108.406 110.917 C 109.276 111.833,109.991 112.715,109.994 112.875 C 109.998 113.035,110.095 113.167,110.211 113.167 C 110.327 113.167,110.833 113.633,111.336 114.202 C 111.839 114.772,112.679 115.684,113.203 116.228 L 114.156 117.218 114.328 116.776 C 114.422 116.532,114.579 116.127,114.675 115.875 C 115.027 114.952,115.251 114.500,115.355 114.500 C 115.414 114.500,115.513 114.162,115.575 113.750 C 115.636 113.337,115.757 113.000,115.844 113.000 C 115.930 113.000,116.000 112.888,116.000 112.750 C 116.000 112.612,116.075 112.500,116.167 112.500 C 116.258 112.500,116.333 112.319,116.333 112.097 C 116.333 111.876,116.424 111.664,116.535 111.627 C 116.803 111.538,116.926 108.412,116.686 107.792 C 116.495 107.299,115.605 107.118,115.453 107.542 C 115.410 107.663,115.317 107.688,115.231 107.602 C 115.145 107.516,115.170 107.423,115.292 107.380 C 115.538 107.292,115.576 106.500,115.333 106.500 C 115.242 106.500,115.167 106.388,115.167 106.250 C 115.167 106.112,115.097 106.000,115.011 106.000 C 114.926 106.000,114.808 105.850,114.750 105.667 C 114.661 105.387,114.498 105.333,113.739 105.333 L 112.833 105.333 112.833 104.359 C 112.833 103.338,112.540 102.833,111.945 102.833 C 111.792 102.833,111.667 102.758,111.667 102.667 C 111.667 102.575,111.442 102.500,111.167 102.500 C 110.892 102.500,110.667 102.575,110.667 102.667 C 110.667 102.758,110.592 102.833,110.500 102.833 C 110.408 102.833,110.333 102.683,110.333 102.500 C 110.333 102.317,110.408 102.167,110.500 102.167 C 110.592 102.167,110.667 101.984,110.667 101.760 C 110.667 101.536,110.592 101.307,110.500 101.250 C 110.408 101.193,110.333 101.018,110.333 100.860 C 110.333 100.703,110.183 100.465,110.000 100.333 C 109.651 100.082,109.547 99.667,109.833 99.667 C 109.925 99.667,110.000 99.517,110.000 99.333 C 110.000 99.150,110.075 99.000,110.167 99.000 C 110.258 99.000,110.333 98.888,110.333 98.750 C 110.333 98.612,110.407 98.500,110.497 98.500 C 110.587 98.500,110.707 98.313,110.765 98.083 C 110.822 97.854,110.936 97.667,111.018 97.667 C 111.100 97.667,111.167 97.517,111.167 97.333 C 111.167 97.150,111.236 97.000,111.320 97.000 C 111.404 97.000,111.523 96.775,111.583 96.500 C 111.644 96.225,111.762 96.000,111.847 96.000 C 111.931 96.000,112.000 95.850,112.000 95.667 C 112.000 95.483,112.075 95.333,112.167 95.333 C 112.258 95.333,112.333 95.221,112.333 95.083 C 112.333 94.903,112.519 94.833,113.000 94.833 C 113.367 94.833,113.667 94.758,113.667 94.667 C 113.667 94.566,114.361 94.500,115.417 94.500 C 116.379 94.500,117.167 94.436,117.167 94.358 C 117.167 94.280,118.215 94.175,119.496 94.124 C 122.060 94.022,122.333 93.916,122.333 93.022 C 122.333 92.746,122.398 92.479,122.478 92.430 C 122.558 92.381,122.675 91.814,122.738 91.170 C 122.802 90.527,122.924 90.000,123.010 90.000 C 123.096 90.000,123.167 89.737,123.167 89.417 C 123.167 89.096,123.237 88.833,123.322 88.833 C 123.407 88.833,123.529 88.233,123.593 87.500 C 123.657 86.767,123.775 86.167,123.855 86.167 C 123.935 86.167,124.000 85.979,124.000 85.750 C 124.000 85.491,123.906 85.333,123.750 85.333 C 123.612 85.333,123.500 85.267,123.500 85.185 C 123.500 85.104,123.254 84.991,122.953 84.934 C 122.652 84.878,122.298 84.683,122.167 84.500 C 122.035 84.317,121.681 84.122,121.380 84.066 C 121.080 84.009,120.833 83.896,120.833 83.815 C 120.833 83.733,120.721 83.667,120.583 83.667 C 120.446 83.667,120.333 83.592,120.333 83.500 C 120.333 83.408,120.183 83.333,120.000 83.333 C 119.817 83.333,119.667 83.264,119.667 83.180 C 119.667 83.096,119.442 82.977,119.167 82.917 C 118.892 82.856,118.667 82.738,118.667 82.653 C 118.667 82.569,118.517 82.500,118.333 82.500 C 118.150 82.500,118.000 82.426,118.000 82.337 C 118.000 82.247,117.813 82.126,117.583 82.068 C 117.354 82.011,117.167 81.911,117.167 81.846 C 117.167 81.782,116.904 81.626,116.583 81.500 C 116.263 81.374,116.000 81.218,116.000 81.154 C 116.000 81.089,115.813 80.989,115.583 80.932 C 115.169 80.828,115.167 80.816,115.167 78.913 C 115.167 77.861,115.103 77.000,115.025 77.000 C 114.947 77.000,114.835 76.317,114.775 75.481 L 114.668 73.963 115.580 73.065 C 116.082 72.571,116.540 72.167,116.597 72.167 C 116.718 72.167,118.168 70.811,118.950 69.966 C 119.061 69.847,119.248 69.658,119.367 69.546 C 119.486 69.434,119.679 69.247,119.796 69.130 C 119.913 69.012,120.195 68.745,120.421 68.534 C 120.648 68.324,120.833 68.085,120.833 68.004 C 120.833 67.922,120.983 67.808,121.167 67.750 C 121.689 67.584,121.559 66.131,120.979 65.667 C 120.922 65.621,120.822 65.340,120.758 65.042 C 120.693 64.744,120.571 64.500,120.487 64.500 C 120.402 64.500,120.333 64.313,120.333 64.083 C 120.333 63.854,120.258 63.667,120.167 63.667 C 120.075 63.667,120.000 63.517,120.000 63.333 C 120.000 63.150,119.928 63.000,119.841 63.000 C 119.753 63.000,119.633 62.737,119.572 62.417 C 119.512 62.096,119.396 61.833,119.315 61.833 C 119.233 61.833,119.167 61.721,119.167 61.583 C 119.167 61.446,119.101 61.333,119.021 61.333 C 118.941 61.333,118.830 61.043,118.773 60.688 C 118.614 59.698,118.396 59.602,116.621 59.735 C 115.775 59.799,115.012 59.922,114.925 60.009 C 114.838 60.096,114.482 60.167,114.133 60.167 C 113.785 60.167,113.500 60.242,113.500 60.333 C 113.500 60.425,113.129 60.500,112.677 60.500 C 112.224 60.500,111.812 60.567,111.761 60.649 C 111.476 61.110,108.333 61.034,108.333 60.566 C 108.333 60.304,106.905 58.833,106.651 58.833 C 106.568 58.833,106.500 58.700,106.500 58.537 C 106.500 58.374,106.253 58.007,105.951 57.723 L 105.403 57.205 105.569 56.103 C 105.660 55.496,105.795 55.000,105.868 55.000 C 105.940 55.000,106.000 54.737,106.000 54.417 C 106.000 54.096,106.068 53.833,106.150 53.833 C 106.233 53.833,106.353 53.383,106.417 52.833 C 106.481 52.283,106.600 51.833,106.683 51.833 C 106.766 51.833,106.833 51.613,106.833 51.343 C 106.833 51.074,106.908 50.807,107.000 50.750 C 107.092 50.693,107.167 50.431,107.167 50.167 C 107.167 49.902,107.231 49.646,107.310 49.598 C 107.962 49.195,107.508 47.333,106.757 47.333 C 106.616 47.333,106.500 47.256,106.500 47.163 C 106.500 47.069,106.311 46.920,106.079 46.832 C 105.848 46.744,105.615 46.558,105.561 46.419 C 105.508 46.280,105.322 46.167,105.149 46.167 C 104.975 46.167,104.833 46.097,104.833 46.011 C 104.833 45.926,104.665 45.803,104.458 45.737 C 104.252 45.672,103.962 45.480,103.814 45.309 C 103.666 45.139,103.477 45.000,103.395 45.000 C 103.314 45.000,103.044 44.813,102.797 44.583 C 102.550 44.354,102.270 44.167,102.174 44.167 C 102.078 44.167,102.000 44.093,102.000 44.003 C 102.000 43.913,101.813 43.793,101.583 43.735 C 101.354 43.678,101.167 43.564,101.167 43.482 C 101.167 43.076,100.329 43.371,99.784 43.970 C 99.673 44.091,99.405 44.353,99.186 44.553 C 98.968 44.753,98.692 45.010,98.573 45.125 C 98.454 45.240,98.309 45.333,98.251 45.333 C 98.193 45.333,97.249 46.233,96.153 47.333 C 95.058 48.433,94.058 49.333,93.932 49.333 C 93.806 49.333,93.660 49.445,93.608 49.580 C 93.507 49.843,92.472 49.755,92.361 49.474 C 92.331 49.396,92.049 49.333,91.736 49.333 C 91.423 49.333,91.167 49.263,91.167 49.178 C 91.167 49.093,90.567 48.971,89.833 48.907 C 89.100 48.843,88.500 48.725,88.500 48.645 C 88.500 48.565,88.345 48.500,88.155 48.500 C 87.695 48.500,87.352 48.133,87.227 47.510 C 87.171 47.229,87.059 47.000,86.979 47.000 C 86.899 47.000,86.833 46.887,86.833 46.750 C 86.833 46.612,86.768 46.500,86.688 46.500 C 86.607 46.500,86.493 46.257,86.434 45.960 C 86.296 45.274,85.957 44.500,85.793 44.500 C 85.723 44.500,85.667 44.350,85.667 44.167 C 85.667 43.983,85.593 43.833,85.502 43.833 C 85.411 43.833,85.289 43.533,85.231 43.167 C 85.172 42.800,85.059 42.500,84.979 42.500 C 84.899 42.500,84.833 42.350,84.833 42.167 C 84.833 41.983,84.758 41.833,84.667 41.833 C 84.575 41.833,84.500 41.759,84.500 41.668 C 84.500 41.383,83.928 40.167,83.794 40.167 C 83.724 40.167,83.667 40.054,83.667 39.917 C 83.667 39.759,83.529 39.679,83.292 39.700 C 83.085 39.719,82.335 39.759,81.625 39.791 " stroke="none" fill="#fc340c" fill-rule="evenodd"></path><path id="path2" d="M103.008 106.489 C 102.880 106.667,102.526 106.947,102.221 107.111 C 101.916 107.275,101.667 107.467,101.667 107.538 C 101.667 107.609,101.554 107.667,101.417 107.667 C 101.279 107.667,101.167 107.737,101.167 107.822 C 101.167 107.908,101.030 108.021,100.863 108.074 C 100.696 108.127,100.414 108.303,100.238 108.466 C 100.061 108.628,99.646 108.888,99.315 109.044 C 98.696 109.335,98.221 109.777,98.369 109.925 C 98.491 110.046,99.000 109.823,99.000 109.649 C 99.000 109.567,99.112 109.500,99.250 109.500 C 99.388 109.500,99.500 109.425,99.500 109.333 C 99.500 109.242,99.584 109.167,99.687 109.167 C 99.998 109.167,101.321 108.264,101.327 108.047 C 101.331 107.935,101.427 107.880,101.542 107.924 C 101.656 107.968,101.953 107.815,102.201 107.585 C 102.449 107.355,102.717 107.167,102.797 107.167 C 102.964 107.167,103.667 106.451,103.667 106.281 C 103.667 106.042,103.230 106.180,103.008 106.489 M104.037 106.663 C 104.150 106.845,104.355 107.037,104.492 107.089 C 104.630 107.142,104.562 106.994,104.342 106.759 C 103.862 106.249,103.757 106.216,104.037 106.663 M102.931 109.173 C 101.930 110.178,101.049 111.000,100.972 111.000 C 100.748 111.000,100.812 111.275,101.090 111.506 C 101.371 111.739,101.259 111.826,103.821 109.375 C 105.311 107.950,105.266 107.959,106.149 108.917 C 106.529 109.329,106.892 109.667,106.956 109.667 C 107.019 109.667,106.701 109.292,106.250 108.833 C 105.799 108.375,105.300 108.000,105.143 108.000 C 104.985 108.000,104.833 107.853,104.803 107.673 C 104.761 107.413,104.372 107.725,102.931 109.173 M97.792 109.997 C 97.513 110.266,97.395 110.667,97.595 110.667 C 97.804 110.667,98.188 110.153,98.137 109.941 C 98.095 109.766,98.019 109.778,97.792 109.997 M107.057 109.946 C 107.119 110.008,107.002 110.237,106.798 110.455 C 106.505 110.766,106.473 110.880,106.647 110.988 C 106.788 111.075,106.807 111.164,106.699 111.230 C 106.605 111.288,106.493 111.241,106.449 111.126 C 106.401 110.997,105.996 111.285,105.394 111.879 C 104.657 112.605,104.472 112.877,104.643 112.984 C 104.785 113.073,104.806 113.164,104.699 113.230 C 104.605 113.288,104.494 113.241,104.452 113.126 C 104.402 112.989,104.168 113.114,103.778 113.485 C 103.449 113.797,103.218 114.115,103.265 114.191 C 103.312 114.267,103.244 114.289,103.113 114.239 C 102.983 114.188,102.832 114.264,102.777 114.407 C 102.722 114.550,102.562 114.667,102.422 114.667 C 102.282 114.667,102.167 114.742,102.167 114.833 C 102.167 115.173,100.805 115.018,100.478 114.641 C 99.971 114.056,100.063 113.029,100.682 112.368 C 101.473 111.525,101.061 111.123,100.171 111.870 C 99.755 112.220,99.357 112.401,98.994 112.407 C 98.693 112.413,98.414 112.510,98.376 112.625 C 98.247 113.008,99.505 112.879,99.857 112.473 C 100.028 112.275,100.218 112.162,100.278 112.222 C 100.338 112.282,100.225 112.472,100.027 112.643 C 99.653 112.967,99.472 114.473,99.833 114.250 C 99.925 114.193,100.000 114.274,100.000 114.429 C 100.000 114.944,100.657 115.333,101.526 115.333 C 102.132 115.333,102.333 115.395,102.333 115.583 C 102.333 115.721,102.408 115.833,102.500 115.833 C 102.592 115.833,102.667 115.736,102.667 115.617 C 102.667 115.498,102.965 115.110,103.329 114.754 C 103.883 114.213,103.958 114.064,103.787 113.845 C 103.607 113.614,103.617 113.610,103.879 113.815 C 104.042 113.943,104.227 113.995,104.291 113.931 C 104.355 113.867,104.297 113.737,104.162 113.642 C 103.960 113.500,103.969 113.486,104.212 113.564 C 104.563 113.677,105.234 113.077,105.064 112.802 C 104.994 112.688,105.024 112.662,105.141 112.734 C 105.247 112.799,105.333 112.769,105.333 112.667 C 105.333 112.564,105.403 112.523,105.487 112.576 C 105.572 112.628,106.114 112.214,106.692 111.655 L 107.743 110.639 108.122 111.079 C 108.330 111.321,108.500 111.451,108.500 111.369 C 108.500 111.287,108.237 110.981,107.917 110.689 C 107.596 110.397,107.333 110.085,107.333 109.996 C 107.333 109.907,107.246 109.833,107.139 109.833 C 107.032 109.833,106.995 109.884,107.057 109.946 M97.167 111.250 C 97.167 111.479,97.234 111.667,97.315 111.667 C 97.397 111.667,97.511 111.854,97.568 112.083 C 97.626 112.313,97.784 112.500,97.920 112.500 C 98.262 112.500,98.228 112.274,97.833 111.917 C 97.650 111.751,97.500 111.439,97.500 111.224 C 97.500 111.009,97.425 110.833,97.333 110.833 C 97.242 110.833,97.167 111.021,97.167 111.250 M109.218 112.263 C 109.644 112.786,109.613 112.840,108.002 114.397 C 107.178 115.193,106.522 115.932,106.543 116.039 C 106.565 116.147,106.508 116.241,106.417 116.248 C 106.108 116.273,105.419 116.716,105.078 117.110 C 104.892 117.324,104.652 117.500,104.546 117.500 C 104.235 117.500,104.103 117.857,104.354 118.022 C 104.543 118.147,104.532 118.212,104.292 118.397 C 104.131 118.519,104.000 118.748,104.000 118.905 C 104.000 119.207,104.405 119.706,104.540 119.571 C 104.583 119.528,104.714 119.606,104.830 119.746 C 105.106 120.078,107.570 120.121,107.454 119.792 C 107.411 119.670,107.147 119.599,106.816 119.620 C 105.799 119.686,104.500 119.346,104.500 119.013 C 104.500 118.767,107.598 115.518,108.170 115.165 C 108.266 115.105,108.298 114.913,108.240 114.737 C 108.159 114.489,108.173 114.470,108.304 114.654 C 108.464 114.880,109.476 113.960,109.387 113.669 C 109.245 113.206,110.428 113.684,111.028 114.333 C 111.410 114.746,111.620 114.933,111.495 114.750 C 111.029 114.067,110.090 113.167,109.841 113.164 C 109.674 113.162,109.649 113.118,109.768 113.039 C 109.889 112.959,109.777 112.743,109.444 112.417 C 109.165 112.142,109.063 112.073,109.218 112.263 M112.648 116.106 C 113.570 117.213,113.629 117.333,113.250 117.333 C 113.112 117.333,113.000 117.439,113.000 117.568 C 113.000 117.720,113.117 117.772,113.333 117.715 C 113.887 117.570,113.715 117.097,112.732 116.065 L 111.797 115.083 112.648 116.106 M102.339 117.042 C 102.348 117.366,102.940 118.000,103.235 118.000 C 103.617 118.000,103.566 117.862,102.982 117.317 C 102.402 116.775,102.331 116.744,102.339 117.042 M112.333 117.651 C 112.196 117.723,111.916 117.868,111.711 117.974 C 111.506 118.080,111.187 118.167,111.002 118.167 C 110.818 118.167,110.667 118.250,110.667 118.351 C 110.667 118.453,110.557 118.493,110.422 118.442 C 110.287 118.390,110.133 118.420,110.079 118.507 C 110.025 118.595,109.797 118.667,109.573 118.667 C 109.350 118.667,109.167 118.742,109.167 118.833 C 109.167 118.925,109.021 119.000,108.843 119.000 C 108.665 119.000,108.473 119.075,108.417 119.167 C 108.360 119.258,108.168 119.333,107.990 119.333 C 107.812 119.333,107.667 119.408,107.667 119.500 C 107.667 119.712,108.287 119.720,108.361 119.509 C 108.392 119.422,108.670 119.307,108.979 119.253 C 109.288 119.199,109.846 119.007,110.218 118.827 C 110.591 118.647,111.026 118.500,111.184 118.500 C 111.343 118.500,111.497 118.427,111.528 118.338 C 111.578 118.192,112.073 118.045,112.625 118.012 C 112.740 118.006,112.833 117.888,112.833 117.750 C 112.833 117.476,112.713 117.452,112.333 117.651 " stroke="none" fill="#682414" fill-rule="evenodd"></path><path id="path3" d="M104.795 107.599 C 104.838 107.822,104.990 108.000,105.136 108.000 C 105.282 108.000,105.664 108.244,105.985 108.542 L 106.569 109.083 105.993 108.389 C 105.676 108.007,105.318 107.689,105.198 107.681 C 105.079 107.673,105.022 107.600,105.073 107.517 C 105.123 107.435,105.064 107.330,104.942 107.283 C 104.782 107.222,104.741 107.312,104.795 107.599 M109.000 111.917 C 109.311 112.237,109.603 112.500,109.649 112.500 C 109.695 112.500,109.478 112.237,109.167 111.917 C 108.856 111.596,108.564 111.333,108.518 111.333 C 108.472 111.333,108.689 111.596,109.000 111.917 M113.536 116.996 C 113.746 117.332,114.000 117.447,114.000 117.207 C 114.000 117.137,113.848 116.985,113.663 116.870 C 113.350 116.674,113.341 116.684,113.536 116.996 " stroke="none" fill="#a12c14" fill-rule="evenodd"></path><path id="path4" d="M105.500 107.774 C 105.500 107.864,105.744 108.158,106.042 108.427 L 106.583 108.917 106.083 108.334 C 105.808 108.014,105.565 107.720,105.542 107.681 C 105.519 107.643,105.500 107.685,105.500 107.774 M109.083 111.831 C 109.450 112.242,109.769 112.611,109.792 112.650 C 109.815 112.690,109.869 112.686,109.913 112.642 C 109.957 112.598,109.638 112.230,109.205 111.823 L 108.417 111.083 109.083 111.831 M110.669 113.530 C 110.667 113.592,110.760 113.743,110.875 113.865 C 110.990 113.987,111.365 114.405,111.708 114.794 C 112.052 115.183,112.330 115.444,112.326 115.375 C 112.317 115.213,110.671 113.380,110.669 113.530 M113.286 116.504 C 113.581 116.813,113.851 117.033,113.885 116.991 C 113.920 116.950,113.679 116.697,113.349 116.429 L 112.750 115.941 113.286 116.504 " stroke="none" fill="#d4340c" fill-rule="evenodd"></path></g></svg>